<?xml version="1.0" encoding="UTF-8"?>
<svg version="1.1" xmlns="http://www.w3.org/2000/svg" width="447" height="431">
<path d="M0 0 C2.31560487 1.32718035 4.63480935 2.64790636 6.95458984 3.96777344 C11.37805527 6.48665555 15.79533006 9.01620076 20.2109375 11.54882812 C23.43557371 13.39585244 26.66392224 15.23630397 29.89208984 17.07714844 C32.17999742 18.38678721 34.46775992 19.69667949 36.75537109 21.00683594 C37.81288574 21.60834473 38.87040039 22.20985352 39.95996094 22.82958984 C61.81804898 35.37921234 80.31495309 49.4140729 88.19287109 74.43261719 C90.55730001 83.37879775 91.34338458 92.18231627 91.33813477 101.40991211 C91.34317268 102.7095137 91.34317268 102.7095137 91.34831238 104.03536987 C91.35773913 106.87352978 91.35976143 109.71163014 91.36083984 112.54980469 C91.36405863 114.54364546 91.36742315 116.537486 91.3709259 118.53132629 C91.37689684 122.70293728 91.37876795 126.87452762 91.37817383 131.04614258 C91.37807243 136.35699246 91.39171085 141.66770799 91.40894604 146.97852612 C91.42013806 151.09583631 91.42209082 155.21311478 91.4215641 159.33043861 C91.42273392 161.28658828 91.42709868 163.24273905 91.43489647 165.19887352 C91.49247937 181.13794283 90.8920614 195.47370649 84.19287109 210.25683594 C83.56251953 211.660625 83.56251953 211.660625 82.91943359 213.09277344 C75.95225072 227.14795739 63.41734645 238.32639795 49.81787109 245.75683594 C47.95801667 246.79634322 46.09866527 247.83675086 44.23974609 248.87792969 C42.77118164 249.69559814 42.77118164 249.69559814 41.27294922 250.52978516 C35.84182688 253.57510534 30.45726112 256.70095171 25.06787109 259.81933594 C22.85955706 261.09410896 20.65122402 262.36884904 18.44287109 263.64355469 C13.76760034 266.34493296 9.09583186 269.05226441 4.42651367 271.76391602 C1.39916195 273.51966094 -1.63303456 275.26695464 -4.66503906 277.01464844 C-6.79621447 278.25050671 -8.91718048 279.50262963 -11.03759766 280.75683594 C-25.10828897 288.99374436 -37.94266466 293.43279892 -54.36962891 293.50683594 C-56.04508789 293.53777344 -56.04508789 293.53777344 -57.75439453 293.56933594 C-68.25120398 293.61801679 -77.65694991 291.79047314 -86.99462891 286.94433594 C-87.63843506 286.61167725 -88.28224121 286.27901855 -88.94555664 285.9362793 C-102.85836732 278.65533253 -116.58958505 270.93370333 -129.98046875 262.73193359 C-136.05227766 259.04215504 -142.28106892 255.63796296 -148.49462891 252.19433594 C-169.34373267 240.60978657 -169.34373267 240.60978657 -177.80712891 233.25683594 C-177.80712891 232.59683594 -177.80712891 231.93683594 -177.80712891 231.25683594 C-178.67917969 230.90878906 -178.67917969 230.90878906 -179.56884766 230.55371094 C-189.40199991 224.85631731 -195.74809966 208.68893993 -198.68212891 198.25683594 C-199.09158075 196.59829683 -199.4670682 194.93098094 -199.80712891 193.25683594 C-199.97927917 192.41407104 -200.15142944 191.57130615 -200.32879639 190.70300293 C-200.93697467 186.32135664 -200.96272165 182.0364428 -200.96826172 177.61816406 C-200.97570908 176.18754639 -200.97570908 176.18754639 -200.98330688 174.72802734 C-200.99787649 171.58137276 -201.00472349 168.43476867 -201.01025391 165.28808594 C-201.01308128 164.20780624 -201.01590866 163.12752655 -201.01882172 162.01451111 C-201.0337971 156.2925492 -201.0430357 150.57061237 -201.04736328 144.84863281 C-201.05283111 138.96930142 -201.07682827 133.09020358 -201.10533524 127.21094513 C-201.12406712 122.66385251 -201.12917291 118.11681482 -201.13069916 113.56968689 C-201.13370478 111.40419749 -201.14166163 109.23870856 -201.15488434 107.07325745 C-201.28761223 83.65655051 -197.73663537 61.95586542 -180.80712891 44.25683594 C-168.71488611 33.17766874 -154.26269847 25.40025756 -140.00878906 17.48583984 C-135.92641266 15.20698834 -131.86691115 12.88812897 -127.80712891 10.56933594 C-126.93548096 10.07240234 -126.06383301 9.57546875 -125.16577148 9.06347656 C-120.28553314 6.27350924 -115.42712528 3.45024124 -110.58837891 0.58886719 C-82.62955673 -15.93629448 -82.62955673 -15.93629448 -66.80712891 -18.74316406 C-66.06333984 -18.88625 -65.31955078 -19.02933594 -64.55322266 -19.17675781 C-40.23501949 -22.91447025 -20.26095318 -11.6167195 0 0 Z " fill="#202020" transform="translate(270.80712890625,67.7431640625)"/>
<path d="M0 0 C2.31 0 4.62 0 7 0 C7 10.23 7 20.46 7 31 C8.32 31 9.64 31 11 31 C11.33 20.77 11.66 10.54 12 0 C14.31 0 16.62 0 19 0 C19.33 10.23 19.66 20.46 20 31 C21.32 31 22.64 31 24 31 C24.33 21.1 24.66 11.2 25 1 C26.98 1 28.96 1 31 1 C31.33 10.9 31.66 20.8 32 31 C33.32 31 34.64 31 36 31 C36.33 21.76 36.66 12.52 37 3 C39.31 3.33 41.62 3.66 44 4 C44.33 12.91 44.66 21.82 45 31 C45.99 31 46.98 31 48 31 C48.33 22.75 48.66 14.5 49 6 C53.6603286 7.55344287 55.91969686 8.32284374 59.5625 11.125 C60.28566406 11.66382812 61.00882812 12.20265625 61.75390625 12.7578125 C64 15 64 15 69 23 C69 29.6 69 36.2 69 43 C45.735 43.495 45.735 43.495 22 44 C22 45.32 22 46.64 22 48 C37.84 48.33 53.68 48.66 70 49 C70 50.98 70 52.96 70 55 C54.16 55.33 38.32 55.66 22 56 C21.67 57.65 21.34 59.3 21 61 C37.17 61 53.34 61 70 61 C70 63.31 70 65.62 70 68 C54.16 68.33 38.32 68.66 22 69 C22 70.32 22 71.64 22 73 C37.84 73.33 53.68 73.66 70 74 C70 75.98 70 77.96 70 80 C54.16 80.33 38.32 80.66 22 81 C22 82.32 22 83.64 22 85 C37.84 85.33 53.68 85.66 70 86 C70 88.31 70 90.62 70 93 C53.83 93 37.66 93 21 93 C21.33 94.32 21.66 95.64 22 97 C37.84 97.33 53.68 97.66 70 98 C70 100.31 70 102.62 70 105 C53.83 105 37.66 105 21 105 C21.33 106.65 21.66 108.3 22 110 C37.84 110.33 53.68 110.66 70 111 C70 112.98 70 114.96 70 117 C54.16 117.33 38.32 117.66 22 118 C22 119.32 22 120.64 22 122 C37.84 122.33 53.68 122.66 70 123 C70 124.98 70 126.96 70 129 C54.16 129.33 38.32 129.66 22 130 C22 131.32 22 132.64 22 134 C37.84 134.33 53.68 134.66 70 135 C70 136.98 70 138.96 70 141 C54.16 141.33 38.32 141.66 22 142 C22 143.32 22 144.64 22 146 C37.84 146.33 53.68 146.66 70 147 C70 149.31 70 151.62 70 154 C54.16 154.33 38.32 154.66 22 155 C21.67 156.32 21.34 157.64 21 159 C45.255 159.495 45.255 159.495 70 160 C70 173.12119806 68.52850191 180.86256373 59.74609375 190.4765625 C56.40831078 193.38872214 54.49838837 194 50 194 C50 186.74 50 179.48 50 172 C48.35 172 46.7 172 45 172 C43.31699331 173.68300669 43.77190923 175.82008727 43.68359375 178.12890625 C43.64169922 179.16337891 43.59980469 180.19785156 43.55664062 181.26367188 C43.51732422 182.35228516 43.47800781 183.44089844 43.4375 184.5625 C43.37272461 186.2012207 43.37272461 186.2012207 43.30664062 187.87304688 C43.20017932 190.58189564 43.09816484 193.29083992 43 196 C41.35 196 39.7 196 38 196 C38 188.08 38 180.16 38 172 C36.02 172 34.04 172 32 172 C31.67 180.25 31.34 188.5 31 197 C29.02 197 27.04 197 25 197 C24.505 184.625 24.505 184.625 24 172 C22.68 172 21.36 172 20 172 C19.67 179.92 19.34 187.84 19 196 C17.02 196 15.04 196 13 196 C12.67 188.08 12.34 180.16 12 172 C10.68 172 9.36 172 8 172 C7.67 180.25 7.34 188.5 7 197 C4.69 197 2.38 197 0 197 C-0.495 184.625 -0.495 184.625 -1 172 C-2.32 172 -3.64 172 -5 172 C-5.33 179.59 -5.66 187.18 -6 195 C-7.98 195 -9.96 195 -12 195 C-12.495 183.615 -12.495 183.615 -13 172 C-14.32 172 -15.64 172 -17 172 C-17.33 178.6 -17.66 185.2 -18 192 C-22 191 -22 191 -24 190 C-24.33 184.06 -24.66 178.12 -25 172 C-26.32 172 -27.64 172 -29 172 C-29.33 175.3 -29.66 178.6 -30 182 C-33.41581431 179.72279046 -33.81059746 178.68837242 -35.1875 174.9375 C-35.53167969 174.03902344 -35.87585938 173.14054688 -36.23046875 172.21484375 C-37 169 -37 169 -37 160 C-19.675 159.505 -19.675 159.505 -2 159 C-2 157.68 -2 156.36 -2 155 C-19.82 154.505 -19.82 154.505 -38 154 C-38 151.69 -38 149.38 -38 147 C-26.12 146.67 -14.24 146.34 -2 146 C-2 144.68 -2 143.36 -2 142 C-19.82 141.505 -19.82 141.505 -38 141 C-38 139.02 -38 137.04 -38 135 C-26.12 134.67 -14.24 134.34 -2 134 C-2 132.68 -2 131.36 -2 130 C-19.82 129.505 -19.82 129.505 -38 129 C-38 127.02 -38 125.04 -38 123 C-26.12 122.67 -14.24 122.34 -2 122 C-2 120.68 -2 119.36 -2 118 C-13.88 117.67 -25.76 117.34 -38 117 C-38 115.02 -38 113.04 -38 111 C-26.12 110.67 -14.24 110.34 -2 110 C-2 108.68 -2 107.36 -2 106 C-13.88 105.67 -25.76 105.34 -38 105 C-38 102.69 -38 100.38 -38 98 C-26.12 97.67 -14.24 97.34 -2 97 C-1.505 95.02 -1.505 95.02 -1 93 C-13.21 93 -25.42 93 -38 93 C-38 90.69 -38 88.38 -38 86 C-26.12 85.67 -14.24 85.34 -2 85 C-2 83.68 -2 82.36 -2 81 C-13.88 80.67 -25.76 80.34 -38 80 C-38 78.02 -38 76.04 -38 74 C-26.12 73.67 -14.24 73.34 -2 73 C-2 71.68 -2 70.36 -2 69 C-13.88 68.67 -25.76 68.34 -38 68 C-38 65.69 -38 63.38 -38 61 C-25.79 61 -13.58 61 -1 61 C-1.66 59.35 -2.32 57.7 -3 56 C-14.55 55.67 -26.1 55.34 -38 55 C-38 53.02 -38 51.04 -38 49 C-26.12 48.67 -14.24 48.34 -2 48 C-2 46.68 -2 45.36 -2 44 C-13.55 43.67 -25.1 43.34 -37 43 C-37 22.41666667 -37 22.41666667 -33.5 16.4375 C-32 15 -32 15 -30 15 C-29.67 20.28 -29.34 25.56 -29 31 C-27.68 31 -26.36 31 -25 31 C-24.98541748 30.31373535 -24.97083496 29.6274707 -24.95581055 28.92041016 C-24.88149849 25.82136099 -24.78478418 22.72340945 -24.6875 19.625 C-24.65366211 18.00464844 -24.65366211 18.00464844 -24.61914062 16.3515625 C-24.58369141 15.3203125 -24.54824219 14.2890625 -24.51171875 13.2265625 C-24.48553467 12.27346191 -24.45935059 11.32036133 -24.43237305 10.33837891 C-24.28968994 9.56671387 -24.14700684 8.79504883 -24 8 C-21 6 -21 6 -18 6 C-17.67 14.25 -17.34 22.5 -17 31 C-15.68 31 -14.36 31 -13 31 C-12.67 21.43 -12.34 11.86 -12 2 C-9.69 2 -7.38 2 -5 2 C-4.505 16.355 -4.505 16.355 -4 31 C-3.01 31 -2.02 31 -1 31 C-0.67 20.77 -0.34 10.54 0 0 Z " fill="#A3A3A3" transform="translate(184,91)"/>
<path d="M0 0 C2.31560487 1.32718035 4.63480935 2.64790636 6.95458984 3.96777344 C11.37805527 6.48665555 15.79533006 9.01620076 20.2109375 11.54882812 C23.43557371 13.39585244 26.66392224 15.23630397 29.89208984 17.07714844 C32.17999742 18.38678721 34.46775992 19.69667949 36.75537109 21.00683594 C37.81288574 21.60834473 38.87040039 22.20985352 39.95996094 22.82958984 C61.81804898 35.37921234 80.31495309 49.4140729 88.19287109 74.43261719 C90.55730001 83.37879775 91.34338458 92.18231627 91.33813477 101.40991211 C91.34317268 102.7095137 91.34317268 102.7095137 91.34831238 104.03536987 C91.35773913 106.87352978 91.35976143 109.71163014 91.36083984 112.54980469 C91.36405863 114.54364546 91.36742315 116.537486 91.3709259 118.53132629 C91.37689684 122.70293728 91.37876795 126.87452762 91.37817383 131.04614258 C91.37807243 136.35699246 91.39171085 141.66770799 91.40894604 146.97852612 C91.42013806 151.09583631 91.42209082 155.21311478 91.4215641 159.33043861 C91.42273392 161.28658828 91.42709868 163.24273905 91.43489647 165.19887352 C91.49247937 181.13794283 90.8920614 195.47370649 84.19287109 210.25683594 C83.56251953 211.660625 83.56251953 211.660625 82.91943359 213.09277344 C75.95225072 227.14795739 63.41734645 238.32639795 49.81787109 245.75683594 C47.95801667 246.79634322 46.09866527 247.83675086 44.23974609 248.87792969 C42.77118164 249.69559814 42.77118164 249.69559814 41.27294922 250.52978516 C35.84182688 253.57510534 30.45726112 256.70095171 25.06787109 259.81933594 C22.85955706 261.09410896 20.65122402 262.36884904 18.44287109 263.64355469 C13.76760034 266.34493296 9.09583186 269.05226441 4.42651367 271.76391602 C1.39916195 273.51966094 -1.63303456 275.26695464 -4.66503906 277.01464844 C-6.79621447 278.25050671 -8.91718048 279.50262963 -11.03759766 280.75683594 C-25.10828897 288.99374436 -37.94266466 293.43279892 -54.36962891 293.50683594 C-56.04508789 293.53777344 -56.04508789 293.53777344 -57.75439453 293.56933594 C-68.25120398 293.61801679 -77.65694991 291.79047314 -86.99462891 286.94433594 C-87.63843506 286.61167725 -88.28224121 286.27901855 -88.94555664 285.9362793 C-102.85836732 278.65533253 -116.58958505 270.93370333 -129.98046875 262.73193359 C-136.05227766 259.04215504 -142.28106892 255.63796296 -148.49462891 252.19433594 C-169.34373267 240.60978657 -169.34373267 240.60978657 -177.80712891 233.25683594 C-177.80712891 232.59683594 -177.80712891 231.93683594 -177.80712891 231.25683594 C-178.67917969 230.90878906 -178.67917969 230.90878906 -179.56884766 230.55371094 C-189.40199991 224.85631731 -195.74809966 208.68893993 -198.68212891 198.25683594 C-199.09158075 196.59829683 -199.4670682 194.93098094 -199.80712891 193.25683594 C-199.97927917 192.41407104 -200.15142944 191.57130615 -200.32879639 190.70300293 C-200.93697467 186.32135664 -200.96272165 182.0364428 -200.96826172 177.61816406 C-200.97570908 176.18754639 -200.97570908 176.18754639 -200.98330688 174.72802734 C-200.99787649 171.58137276 -201.00472349 168.43476867 -201.01025391 165.28808594 C-201.01308128 164.20780624 -201.01590866 163.12752655 -201.01882172 162.01451111 C-201.0337971 156.2925492 -201.0430357 150.57061237 -201.04736328 144.84863281 C-201.05283111 138.96930142 -201.07682827 133.09020358 -201.10533524 127.21094513 C-201.12406712 122.66385251 -201.12917291 118.11681482 -201.13069916 113.56968689 C-201.13370478 111.40419749 -201.14166163 109.23870856 -201.15488434 107.07325745 C-201.28761223 83.65655051 -197.73663537 61.95586542 -180.80712891 44.25683594 C-168.71488611 33.17766874 -154.26269847 25.40025756 -140.00878906 17.48583984 C-135.92641266 15.20698834 -131.86691115 12.88812897 -127.80712891 10.56933594 C-126.93548096 10.07240234 -126.06383301 9.57546875 -125.16577148 9.06347656 C-120.28553314 6.27350924 -115.42712528 3.45024124 -110.58837891 0.58886719 C-82.62955673 -15.93629448 -82.62955673 -15.93629448 -66.80712891 -18.74316406 C-66.06333984 -18.88625 -65.31955078 -19.02933594 -64.55322266 -19.17675781 C-40.23501949 -22.91447025 -20.26095318 -11.6167195 0 0 Z M-97.80712891 3.56933594 C-99.93558693 4.82920808 -102.06450921 6.08829615 -104.19384766 7.34667969 C-105.83039307 8.31710205 -105.83039307 8.31710205 -107.5 9.30712891 C-111.78314734 11.83224441 -116.09176219 14.31139191 -120.40429688 16.78588867 C-124.7480283 19.27965885 -129.08162415 21.79082294 -133.41601562 24.30078125 C-135.73726992 25.63972217 -138.0608112 26.97325614 -140.38964844 28.29882812 C-162.17721137 40.70666305 -179.36657218 52.15544413 -189.05712891 76.38183594 C-190.84909951 83.25105658 -190.96287016 90.14482967 -190.98413086 97.19848633 C-190.99070206 98.16067078 -190.99727325 99.12285522 -191.00404358 100.11419678 C-191.02364594 103.27762958 -191.0354109 106.44101516 -191.04541016 109.60449219 C-191.04948568 110.69272215 -191.05356121 111.78095211 -191.05776024 112.90215874 C-191.07856697 118.66418132 -191.09289106 124.42618049 -191.10229492 130.18823242 C-191.11333852 136.10334823 -191.14773081 142.01808576 -191.18746662 147.93306828 C-191.21375804 152.51365299 -191.22199791 157.09414927 -191.2255764 161.67480278 C-191.23041121 163.85343412 -191.24193507 166.03206235 -191.2606144 168.21061897 C-191.44486598 191.12650589 -187.50917192 208.26904997 -171.68994141 225.65917969 C-164.40432811 232.22412934 -155.97776219 237.04188896 -147.45901489 241.82214355 C-144.36747361 243.55712342 -141.28540403 245.30882877 -138.20166016 247.05761719 C-137.5778093 247.41076996 -136.95395844 247.76392273 -136.311203 248.1277771 C-130.29952318 251.53431893 -124.33115674 255.01334729 -118.36962891 258.50683594 C-110.69848913 262.99388537 -103.01655316 267.46082733 -95.30712891 271.88183594 C-94.46480713 272.3668457 -93.62248535 272.85185547 -92.75463867 273.3515625 C-82.94381394 279.21746061 -82.94381394 279.21746061 -72.11962891 282.50683594 C-70.78351563 282.73113281 -70.78351563 282.73113281 -69.42041016 282.95996094 C-66.41746971 283.35089957 -66.41746971 283.35089957 -61.80712891 283.25683594 C-61.80712891 272.69683594 -61.80712891 262.13683594 -61.80712891 251.25683594 C-55.86712891 251.25683594 -49.92712891 251.25683594 -43.80712891 251.25683594 C-43.80712891 261.81683594 -43.80712891 272.37683594 -43.80712891 283.25683594 C-35.61983376 282.23342404 -30.61146032 280.27836602 -23.49462891 276.50683594 C-22.77549316 276.1270459 -22.05635742 275.74725586 -21.31542969 275.35595703 C-13.44422406 271.14600719 -5.76291209 266.61038152 1.9050293 262.04296875 C6.90395548 259.08437841 11.77620346 256.36584659 17.19287109 254.25683594 C17.19287109 253.59683594 17.19287109 252.93683594 17.19287109 252.25683594 C18.23991211 251.8652832 18.23991211 251.8652832 19.30810547 251.46582031 C42.64947512 241.68362138 67.37126905 226.44142998 77.42581177 202.38052368 C81.90015276 189.99282068 81.61795789 177.74655531 81.55615234 164.75292969 C81.55563255 162.58065288 81.55615486 160.40837559 81.55766296 158.23609924 C81.5575737 153.70330703 81.54723775 149.17069437 81.52905273 144.63793945 C81.50635396 138.85616518 81.50582909 133.07465232 81.51257038 127.29284573 C81.51592697 122.81360083 81.50924876 118.33441449 81.49944115 113.85518074 C81.495619 111.72433848 81.4944284 109.59348967 81.49602699 107.46264458 C82.16577545 88.61139462 82.16577545 88.61139462 76.19287109 71.25683594 C75.80099609 70.03996094 75.40912109 68.82308594 75.00537109 67.56933594 C72.99112433 61.93157647 69.02935298 57.75295008 65.19287109 53.25683594 C64.3593623 52.19447358 63.525998 51.13199781 62.69287109 50.06933594 C57.48931191 44.21533185 51.88365185 39.85925541 45.13037109 35.94433594 C44.55295166 35.6067627 43.97553223 35.26918945 43.38061523 34.92138672 C39.37963144 32.67965653 35.60438853 31.36393012 31.19287109 30.25683594 C31.19287109 29.59683594 31.19287109 28.93683594 31.19287109 28.25683594 C28.88287109 27.59683594 26.57287109 26.93683594 24.19287109 26.25683594 C24.19287109 25.59683594 24.19287109 24.93683594 24.19287109 24.25683594 C21.23909611 21.88703581 21.23909611 21.88703581 17.19287109 22.25683594 C17.19287109 21.59683594 17.19287109 20.93683594 17.19287109 20.25683594 C14.23909611 17.88703581 14.23909611 17.88703581 10.19287109 18.25683594 C10.19287109 17.59683594 10.19287109 16.93683594 10.19287109 16.25683594 C6.45723831 13.54001209 2.63667917 12.38957133 -1.80712891 11.25683594 C-1.80712891 10.59683594 -1.80712891 9.93683594 -1.80712891 9.25683594 C-4.11712891 8.59683594 -6.42712891 7.93683594 -8.80712891 7.25683594 C-8.80712891 6.59683594 -8.80712891 5.93683594 -8.80712891 5.25683594 C-9.82162109 4.83273438 -10.83611328 4.40863281 -11.88134766 3.97167969 C-15.54160462 2.40326096 -19.07613474 0.63765466 -22.61962891 -1.18066406 C-23.86348375 -1.79843933 -25.10827908 -2.41432456 -26.35400391 -3.02832031 C-28.31830844 -4.00380639 -30.27392939 -4.99868393 -32.19775391 -6.05175781 C-53.09941085 -16.31462175 -79.39665587 -7.47725671 -97.80712891 3.56933594 Z " fill="#8D8D8D" transform="translate(270.80712890625,67.7431640625)"/>
<path d="M0 0 C0.66 0.33 1.32 0.66 2 1 C2 39.94 2 78.88 2 119 C-9.22 119 -20.44 119 -32 119 C-30.5 123 -30.5 123 -28 124 C-25.90644981 124.09167789 -23.80990823 124.11750933 -21.71435547 124.11352539 C-20.7483139 124.11374443 -20.7483139 124.11374443 -19.76275635 124.1139679 C-17.63086598 124.1132704 -15.49906263 124.10548566 -13.3671875 124.09765625 C-11.89031014 124.09579149 -10.41343216 124.09436786 -8.93655396 124.09336853 C-5.04687801 124.08954792 -1.15723933 124.07972152 2.73242188 124.06866455 C6.70051571 124.05844064 10.66861555 124.05386881 14.63671875 124.04882812 C22.42449616 124.03809885 30.21224286 124.02102789 38 124 C37.505 125.485 37.505 125.485 37 127 C35.68 127.33 34.36 127.66 33 128 C32.67 136.25 32.34 144.5 32 153 C30.02 153 28.04 153 26 153 C25.505 140.625 25.505 140.625 25 128 C23.68 128 22.36 128 21 128 C20.67 135.92 20.34 143.84 20 152 C18.02 152 16.04 152 14 152 C13.67 144.08 13.34 136.16 13 128 C11.68 128 10.36 128 9 128 C8.67 136.25 8.34 144.5 8 153 C5.69 153 3.38 153 1 153 C0.505 140.625 0.505 140.625 0 128 C-1.32 128 -2.64 128 -4 128 C-4.33 135.59 -4.66 143.18 -5 151 C-6.98 151 -8.96 151 -11 151 C-11.495 139.615 -11.495 139.615 -12 128 C-13.32 128 -14.64 128 -16 128 C-16.33 134.6 -16.66 141.2 -17 148 C-21 147 -21 147 -23 146 C-23.33 140.06 -23.66 134.12 -24 128 C-25.32 128 -26.64 128 -28 128 C-28.33 131.3 -28.66 134.6 -29 138 C-32.41581431 135.72279046 -32.81059746 134.68837242 -34.1875 130.9375 C-34.53167969 130.03902344 -34.87585938 129.14054688 -35.23046875 128.21484375 C-36 125 -36 125 -36 116 C-18.675 115.505 -18.675 115.505 -1 115 C-1 113.68 -1 112.36 -1 111 C-12.88 110.67 -24.76 110.34 -37 110 C-37 107.69 -37 105.38 -37 103 C-25.12 102.67 -13.24 102.34 -1 102 C-1 100.68 -1 99.36 -1 98 C-12.88 97.67 -24.76 97.34 -37 97 C-37 95.02 -37 93.04 -37 91 C-25.12 90.67 -13.24 90.34 -1 90 C-1 88.68 -1 87.36 -1 86 C-12.88 85.67 -24.76 85.34 -37 85 C-37 83.02 -37 81.04 -37 79 C-25.12 78.67 -13.24 78.34 -1 78 C-1 76.68 -1 75.36 -1 74 C-12.88 73.67 -24.76 73.34 -37 73 C-37 71.02 -37 69.04 -37 67 C-25.12 66.67 -13.24 66.34 -1 66 C-1 64.68 -1 63.36 -1 62 C-12.88 61.67 -24.76 61.34 -37 61 C-37 58.69 -37 56.38 -37 54 C-25.12 53.67 -13.24 53.34 -1 53 C-0.67 51.68 -0.34 50.36 0 49 C-12.21 49 -24.42 49 -37 49 C-37 46.69 -37 44.38 -37 42 C-25.12 41.67 -13.24 41.34 -1 41 C-1 39.68 -1 38.36 -1 37 C-12.88 36.67 -24.76 36.34 -37 36 C-37 34.02 -37 32.04 -37 30 C-25.12 29.67 -13.24 29.34 -1 29 C-1 27.68 -1 26.36 -1 25 C-12.88 24.67 -24.76 24.34 -37 24 C-37 21.69 -37 19.38 -37 17 C-24.79 17 -12.58 17 0 17 C-0.66 15.35 -1.32 13.7 -2 12 C-13.55 11.67 -25.1 11.34 -37 11 C-37 9.02 -37 7.04 -37 5 C-25.12 4.67 -13.24 4.34 -1 4 C-0.67 2.68 -0.34 1.36 0 0 Z " fill="#919191" transform="translate(183,135)"/>
<path d="M0 0 C0.66 0 1.32 0 2 0 C2.33 1.32 2.66 2.64 3 4 C18.84 4.33 34.68 4.66 51 5 C51 6.98 51 8.96 51 11 C35.16 11.33 19.32 11.66 3 12 C2.67 13.65 2.34 15.3 2 17 C18.17 17 34.34 17 51 17 C51 19.31 51 21.62 51 24 C35.16 24.33 19.32 24.66 3 25 C3 26.32 3 27.64 3 29 C18.84 29.33 34.68 29.66 51 30 C51 31.98 51 33.96 51 36 C35.16 36.33 19.32 36.66 3 37 C3 38.32 3 39.64 3 41 C18.84 41.33 34.68 41.66 51 42 C51 44.31 51 46.62 51 49 C34.83 49 18.66 49 2 49 C2.33 50.32 2.66 51.64 3 53 C18.84 53.33 34.68 53.66 51 54 C51 56.31 51 58.62 51 61 C34.83 61 18.66 61 2 61 C2.33 62.65 2.66 64.3 3 66 C18.84 66.33 34.68 66.66 51 67 C51 68.98 51 70.96 51 73 C35.16 73.33 19.32 73.66 3 74 C3 75.32 3 76.64 3 78 C18.84 78.33 34.68 78.66 51 79 C51 80.98 51 82.96 51 85 C35.16 85.33 19.32 85.66 3 86 C3 87.32 3 88.64 3 90 C18.84 90.33 34.68 90.66 51 91 C51 92.98 51 94.96 51 97 C35.16 97.33 19.32 97.66 3 98 C3 99.32 3 100.64 3 102 C18.84 102.33 34.68 102.66 51 103 C51 105.31 51 107.62 51 110 C35.16 110.33 19.32 110.66 3 111 C2.67 112.32 2.34 113.64 2 115 C1.34 115 0.68 115 0 115 C0 77.05 0 39.1 0 0 Z " fill="#868686" transform="translate(203,135)"/>
<path d="M0 0 C13.35638592 -0.69084755 30.67983266 2.45148695 41.25 11.171875 C50.76537256 21.11204098 51.29780536 32.28826003 51.1953125 45.34375 C51.19157576 46.72236932 51.18873191 48.10099132 51.18673706 49.47961426 C51.17915258 53.08320634 51.15954962 56.68663355 51.1373291 60.29016113 C51.11675802 63.97727225 51.10771142 67.66441037 51.09765625 71.3515625 C51.07629802 78.56778295 51.04222592 85.78386825 51 93 C48.33333333 93.66666667 45.66666667 94.33333333 43 95 C42.25234375 95.18691406 41.5046875 95.37382812 40.734375 95.56640625 C40.16203125 95.70949219 39.5896875 95.85257812 39 96 C38.67 94.35 38.34 92.7 38 91 C35.69 91 33.38 91 31 91 C31.33 89.35 31.66 87.7 32 86 C33.4540625 85.5978125 33.4540625 85.5978125 34.9375 85.1875 C36.4534375 84.5996875 36.4534375 84.5996875 38 84 C38.495 82.515 38.495 82.515 39 81 C38.67 80.34 38.34 79.68 38 79 C35.69 79 33.38 79 31 79 C31.33 77.35 31.66 75.7 32 74 C35.465 73.01 35.465 73.01 39 72 C38.67 70.35 38.34 68.7 38 67 C35.36 67 32.72 67 30 67 C30 65.02 30 63.04 30 61 C32.64 60.34 35.28 59.68 38 59 C38 57.68 38 56.36 38 55 C35.36 55 32.72 55 30 55 C30 53.02 30 51.04 30 49 C30.56589844 48.82984375 31.13179688 48.6596875 31.71484375 48.484375 C32.44832031 48.24203125 33.18179688 47.9996875 33.9375 47.75 C34.66839844 47.51796875 35.39929688 47.2859375 36.15234375 47.046875 C36.76207031 46.70140625 37.37179687 46.3559375 38 46 C38.33 44.68 38.66 43.36 39 42 C34.545 42.495 34.545 42.495 30 43 C29.96261719 42.17757812 29.92523438 41.35515625 29.88671875 40.5078125 C29.25189256 29.72821482 28.04924841 19.84527136 20 12 C14.27495855 7.57074982 8.87819312 4.24713696 2 2 C1.34 1.34 0.68 0.68 0 0 Z M38 96 C39 99 39 99 38.4375 101.125 C37 103 37 103 33.875 103.75 C32.451875 103.87375 32.451875 103.87375 31 104 C31.75 99.25 31.75 99.25 34 97 C36.125 96.375 36.125 96.375 38 96 Z " fill="#5E5E5E" transform="translate(229,90)"/>
<path d="M0 0 C-0.48709946 0.93566299 -0.48709946 0.93566299 -0.98403931 1.89022827 C-2.39650933 6.21368231 -2.27566771 10.23577853 -2.25537109 14.75634766 C-2.25899155 15.73427277 -2.262612 16.71219788 -2.26634216 17.71975708 C-2.27322772 19.84063409 -2.27574318 21.96152878 -2.27439499 24.08241653 C-2.27342819 27.44645354 -2.28639214 30.81017237 -2.30337524 34.17416382 C-2.34958951 43.73799144 -2.37423503 53.30178721 -2.38085938 62.86572266 C-2.3858917 68.72012219 -2.4102325 74.57419098 -2.44618607 80.42847824 C-2.45594735 82.65223575 -2.4583362 84.87603899 -2.45301437 87.09981155 C-2.39138443 114.12950333 -2.39138443 114.12950333 -11.28515625 123.56640625 C-17.54433445 128.79902219 -24.25618594 130.14981976 -32.21582031 130.14526367 C-33.05357498 130.14862228 -33.89132965 130.1519809 -34.75447083 130.15544128 C-37.52903724 130.1649537 -40.30354329 130.16689475 -43.078125 130.16796875 C-45.00762965 130.17118185 -46.93713405 130.17454596 -48.86663818 130.17805481 C-52.91516687 130.18404731 -56.96367422 130.18589466 -61.01220703 130.18530273 C-66.19164225 130.18520127 -71.3709399 130.19883666 -76.55034256 130.21607494 C-80.53784815 130.22721396 -84.52532072 130.22922133 -88.51284027 130.22869301 C-90.42174502 130.2298709 -92.33065069 130.23428196 -94.2395401 130.24202538 C-96.91532401 130.25186068 -99.59081254 130.24893293 -102.26660156 130.24291992 C-103.05023575 130.24853943 -103.83386993 130.25415894 -104.64125061 130.25994873 C-110.43392758 130.22699511 -115.5528399 129.45664292 -120.625 126.4375 C-125.5665031 121.36595734 -128.2870455 116.24469979 -128.48828125 109.08984375 C-128.45551198 107.03848734 -128.3965651 104.98739512 -128.3125 102.9375 C-128.28994141 101.88111328 -128.26738281 100.82472656 -128.24414062 99.73632812 C-128.18576274 97.15602561 -128.10394519 94.5788002 -128 92 C-126 92 -126 92 -124.40234375 93.51171875 C-122.498388 96.89004691 -122.60238943 100.03687848 -122.5625 103.8125 C-122.33415743 109.94473606 -121.95602734 114.16485548 -118 119 C-112.8915313 123.73467831 -108.86377087 124.14741225 -102.13549805 124.12939453 C-100.93497803 124.13202301 -100.93497803 124.13202301 -99.71020508 124.13470459 C-97.06068766 124.1391106 -94.41123687 124.13618866 -91.76171875 124.1328125 C-89.91949958 124.1334861 -88.07728051 124.13445659 -86.23506165 124.13571167 C-82.37064774 124.13718711 -78.50625693 124.13503973 -74.6418457 124.13037109 C-69.69551844 124.12468589 -64.74924559 124.12794611 -59.80292034 124.13394356 C-55.99646091 124.13756354 -52.19001429 124.13640376 -48.38355446 124.13381577 C-46.56035162 124.13314985 -44.73714762 124.13396318 -42.91394615 124.13629532 C-40.36016148 124.13884407 -37.80646377 124.13494942 -35.25268555 124.12939453 C-34.50285904 124.13141876 -33.75303253 124.13344299 -32.98048401 124.13552856 C-28.88270422 124.11907516 -25.02045405 123.79611435 -21 123 C-21 122.34 -21 121.68 -21 121 C-20.21625 120.7525 -19.4325 120.505 -18.625 120.25 C-15.56577414 118.79322578 -15.25063851 118.03726494 -14 115 C-13.2265625 114.01 -13.2265625 114.01 -12.4375 113 C-10.09855476 109.74581532 -9.87520711 106.61226085 -9.87542725 102.68031311 C-9.87286423 101.82379654 -9.87030121 100.96727997 -9.86766052 100.08480835 C-9.86976028 99.15326935 -9.87186005 98.22173035 -9.87402344 97.26196289 C-9.8721553 96.27454605 -9.87028717 95.28712921 -9.86836243 94.26979065 C-9.8643605 92.12650374 -9.86228378 89.98321257 -9.86190033 87.83992195 C-9.85848472 83.28556601 -9.83712534 78.73135283 -9.81666946 74.17704678 C-9.77863327 65.69686913 -9.74738864 57.21684496 -9.74951172 48.73657227 C-9.75029773 42.8378936 -9.72698444 36.93973877 -9.6876297 31.04119682 C-9.67715348 28.79294628 -9.67565752 26.5446354 -9.68328094 24.29637337 C-9.69287878 21.15281355 -9.67176563 18.01084743 -9.64355469 14.86743164 C-9.65375137 13.93791687 -9.66394806 13.0084021 -9.67445374 12.05072021 C-9.6024004 7.57762103 -9.42896996 5.58377607 -6.70977783 1.88328552 C-4 0 -4 0 0 0 Z " fill="#858585" transform="translate(278,186)"/>
<path d="M0 0 C1.32 0 2.64 0 4 0 C6.0972727 3.14590904 6.25321018 3.88802643 6.27415466 7.47622681 C6.28911736 8.85123856 6.28911736 8.85123856 6.30438232 10.25402832 C6.305047 11.25768433 6.30571167 12.26134033 6.30639648 13.29541016 C6.31472 14.35428436 6.32304352 15.41315857 6.33161926 16.50411987 C6.35577539 20.01580453 6.36449982 23.52730348 6.37109375 27.0390625 C6.38005825 29.4794419 6.38918006 31.91982073 6.39845276 34.36019897 C6.41496227 39.48314754 6.42264603 44.60603063 6.42553711 49.72900391 C6.43091223 56.28279937 6.46854884 62.83597594 6.51428127 69.38959694 C6.544081 74.43405378 6.55126137 79.47836243 6.55226326 84.52289963 C6.5564624 86.93815307 6.56888423 89.35340707 6.58978081 91.76857376 C6.61674402 95.15557982 6.61185296 98.54116278 6.59936523 101.92822266 C6.61419952 102.91973328 6.62903381 103.9112439 6.64431763 104.93280029 C6.57393662 111.66258923 5.10304221 116.59174698 1 122 C-4.67207249 127.31389849 -9.45026981 128.14518712 -17 128 C-15.948125 127.01 -15.948125 127.01 -14.875 126 C-9.56663601 120.69163601 -3.75827788 114.34748164 -3.74171448 106.52845764 C-3.73488647 105.63828445 -3.72805847 104.74811127 -3.72102356 103.83096313 C-3.72357651 102.86202118 -3.72612946 101.89307922 -3.72875977 100.89477539 C-3.72091965 99.35512871 -3.72091965 99.35512871 -3.71292114 97.78437805 C-3.70268092 95.55598034 -3.6969007 93.32755872 -3.69503975 91.09913826 C-3.69138068 87.57301251 -3.67466678 84.04716915 -3.65428162 80.52110291 C-3.59882197 70.49597417 -3.56816281 60.47080384 -3.54370117 50.44555664 C-3.52783641 44.31357789 -3.49762918 38.18179977 -3.45893669 32.04992485 C-3.44727772 29.71235723 -3.44135626 27.37475375 -3.44125557 25.03715706 C-3.44106376 21.769431 -3.42281473 18.50225923 -3.40063477 15.23461914 C-3.40750053 13.78424255 -3.40750053 13.78424255 -3.414505 12.30456543 C-3.32025445 3.58083011 -3.32025445 3.58083011 0 0 Z " fill="#3F3F3F" transform="translate(280,188)"/>
<path d="M0 0 C13.35638592 -0.69084755 30.67983266 2.45148695 41.25 11.171875 C49.06585864 19.3366559 51.38096793 28.97595168 51.25 39.9375 C51.24613281 40.72366699 51.24226563 41.50983398 51.23828125 42.31982422 C51.15666859 47.78900582 50.56030863 52.73395836 49 58 C48.67 58 48.34 58 48 58 C47.98541748 57.3608667 47.97083496 56.7217334 47.95581055 56.06323242 C47.88030517 53.1041155 47.78399275 50.1460041 47.6875 47.1875 C47.65366211 45.68026367 47.65366211 45.68026367 47.61914062 44.14257812 C47.2354143 33.29358838 45.29037981 23.3918041 38 15 C36.06959502 13.45917789 34.12886089 12.2671791 32 11 C32 10.34 32 9.68 32 9 C25.40620337 6.70438191 18.75052102 4.77910928 12 3 C12 3.66 12 4.32 12 5 C12.70125 5.0825 13.4025 5.165 14.125 5.25 C21.03738797 7.05323164 26.07137055 12.23137955 30 18 C32.85591339 24.35570543 33.57462701 31.10602398 34 38 C36.31 38 38.62 38 41 38 C41 48.56 41 59.12 41 70 C40.01 70.495 40.01 70.495 39 71 C38.67 69.68 38.34 68.36 38 67 C35.36 67 32.72 67 30 67 C30 65.02 30 63.04 30 61 C32.64 60.34 35.28 59.68 38 59 C38 57.68 38 56.36 38 55 C35.36 55 32.72 55 30 55 C30 53.02 30 51.04 30 49 C30.56589844 48.82984375 31.13179688 48.6596875 31.71484375 48.484375 C32.44832031 48.24203125 33.18179688 47.9996875 33.9375 47.75 C34.66839844 47.51796875 35.39929688 47.2859375 36.15234375 47.046875 C36.76207031 46.70140625 37.37179687 46.3559375 38 46 C38.33 44.68 38.66 43.36 39 42 C34.545 42.495 34.545 42.495 30 43 C29.96261719 42.17757812 29.92523438 41.35515625 29.88671875 40.5078125 C29.25189256 29.72821482 28.04924841 19.84527136 20 12 C14.27495855 7.57074982 8.87819312 4.24713696 2 2 C1.34 1.34 0.68 0.68 0 0 Z " fill="#424242" transform="translate(229,90)"/>
<path d="M0 0 C-0.33 0.99 -0.66 1.98 -1 3 C-2.32 3.33 -3.64 3.66 -5 4 C-5.33 12.25 -5.66 20.5 -6 29 C-7.98 29 -9.96 29 -12 29 C-12.495 16.625 -12.495 16.625 -13 4 C-14.32 4 -15.64 4 -17 4 C-17.33 11.92 -17.66 19.84 -18 28 C-19.98 28 -21.96 28 -24 28 C-24.495 16.12 -24.495 16.12 -25 4 C-26.32 4 -27.64 4 -29 4 C-29.33 12.25 -29.66 20.5 -30 29 C-32.31 29 -34.62 29 -37 29 C-37.33 20.75 -37.66 12.5 -38 4 C-39.32 3.34 -40.64 2.68 -42 2 C-37.65374953 0.95398573 -33.37347756 0.78493243 -28.92578125 0.68359375 C-28.16073776 0.66281265 -27.39569427 0.64203156 -26.60746765 0.62062073 C-24.17589798 0.55554607 -21.7442246 0.49646986 -19.3125 0.4375 C-17.66600537 0.39426919 -16.01952079 0.35065349 -14.37304688 0.30664062 C-2.74663421 0 -2.74663421 0 0 0 Z " fill="#8F8F8F" transform="translate(221,259)"/>
<path d="M0 0 C0.66 0.99 1.32 1.98 2 3 C4.13331595 3.47545884 4.13331595 3.47545884 6.63330078 3.43237305 C7.59414581 3.45216721 8.55499084 3.47196136 9.54495239 3.49235535 C10.58457123 3.49874527 11.62419006 3.50513519 12.6953125 3.51171875 C13.75789276 3.52966995 14.82047302 3.54762115 15.91525269 3.56611633 C19.31846107 3.62042002 22.72152764 3.65417963 26.125 3.6875 C28.42840524 3.72065532 30.73179172 3.75514329 33.03515625 3.79101562 C38.68997699 3.87615777 44.34481564 3.94442232 50 4 C50 6.31 50 8.62 50 11 C34.16 11.33 18.32 11.66 2 12 C1.67 13.32 1.34 14.64 1 16 C0.34 16 -0.32 16 -1 16 C-1.02712153 14.083412 -1.04645097 12.1667127 -1.0625 10.25 C-1.07410156 9.18265625 -1.08570313 8.1153125 -1.09765625 7.015625 C-1.01510087 4.46631499 -0.74617558 2.42066409 0 0 Z " fill="#838383" transform="translate(204,234)"/>
<path d="M0 0 C0 10.23 0 20.46 0 31 C-14 37 -14 37 -21 38 C-20.41992188 37.27296875 -20.41992188 37.27296875 -19.828125 36.53125 C-13.04422602 27.79949883 -8.89618542 19.33048654 -8.375 8.125 C-8.33632813 7.43664062 -8.29765625 6.74828125 -8.2578125 6.0390625 C-8.16451834 4.35976754 -8.08121762 2.67992233 -8 1 C-5 0 -5 0 0 0 Z " fill="#404040" transform="translate(267,248)"/>
<path d="M0 0 C0.66 0 1.32 0 2 0 C2.33 1.32 2.66 2.64 3 4 C18.84 4.33 34.68 4.66 51 5 C51 6.98 51 8.96 51 11 C35.16 11.33 19.32 11.66 3 12 C2.34 13.32 1.68 14.64 1 16 C-0.14077657 12.57767028 -0.09815117 9.91326783 -0.0625 6.3125 C-0.05347656 5.13300781 -0.04445312 3.95351562 -0.03515625 2.73828125 C-0.02355469 1.83464844 -0.01195312 0.93101562 0 0 Z " fill="#878787" transform="translate(203,135)"/>
<path d="M0 0 C0.66 0.33 1.32 0.66 2 1 C3.54142175 1.11822971 5.08761097 1.17699811 6.63330078 1.20532227 C7.59414581 1.22526749 8.55499084 1.24521271 9.54495239 1.26576233 C11.10438065 1.29083107 11.10438065 1.29083107 12.6953125 1.31640625 C13.75789276 1.33718735 14.82047302 1.35796844 15.91525269 1.37937927 C19.31843438 1.44490261 22.72169489 1.50377273 26.125 1.5625 C28.42839366 1.60568257 30.73177926 1.64929677 33.03515625 1.69335938 C38.69002021 1.80058682 44.34496303 1.90234802 50 2 C50 3.98 50 5.96 50 8 C34.16 8.33 18.32 8.66 2 9 C1.34 10.32 0.68 11.64 0 13 C-0.33 13 -0.66 13 -1 13 C-1.02686553 11.02090602 -1.04633375 9.04171029 -1.0625 7.0625 C-1.07410156 5.96035156 -1.08570313 4.85820312 -1.09765625 3.72265625 C-1 1 -1 1 0 0 Z " fill="#8C8C8C" transform="translate(204,163)"/>
<path d="M0 0 C0 3.96 0 7.92 0 12 C-0.66 12 -1.32 12 -2 12 C-2.495 10.515 -2.495 10.515 -3 9 C-14.88 8.67 -26.76 8.34 -39 8 C-39 5.69 -39 3.38 -39 1 C-33.60653108 0.85741796 -28.21305771 0.71500585 -22.81958008 0.57275391 C-20.98331581 0.52429851 -19.14705279 0.475796 -17.31079102 0.42724609 C-14.67724932 0.35762454 -12.04370326 0.28817033 -9.41015625 0.21875 C-8.58411392 0.19687622 -7.75807159 0.17500244 -6.90699768 0.15246582 C-1.11387171 0 -1.11387171 0 0 0 Z " fill="#8B8B8B" transform="translate(185,188)"/>
<path d="M0 0 C0.66 0.33 1.32 0.66 2 1 C2 5.95 2 10.9 2 16 C1.01 16.495 1.01 16.495 0 17 C-0.66 15.35 -1.32 13.7 -2 12 C-13.55 11.67 -25.1 11.34 -37 11 C-37 9.02 -37 7.04 -37 5 C-25.12 4.67 -13.24 4.34 -1 4 C-0.67 2.68 -0.34 1.36 0 0 Z " fill="#919191" transform="translate(183,135)"/>
<path d="M0 0 C0.66 0 1.32 0 2 0 C2.90413673 3.83724172 3.10576898 7.37502274 3.0625 11.3125 C3.05347656 12.38113281 3.04445312 13.44976562 3.03515625 14.55078125 C3.02355469 15.35902344 3.01195312 16.16726562 3 17 C2.34 17 1.68 17 1 17 C0.505 15.02 0.505 15.02 0 13 C-11.88 12.67 -23.76 12.34 -36 12 C-36 10.02 -36 8.04 -36 6 C-24.12 5.67 -12.24 5.34 0 5 C0 3.35 0 1.7 0 0 Z " fill="#969696" transform="translate(182,159)"/>
<path d="M0 0 C0.33 0 0.66 0 1 0 C1 10.23 1 20.46 1 31 C1.66 31 2.32 31 3 31 C3 20.77 3 10.54 3 0 C5.31 0 7.62 0 10 0 C10 9.57 10 19.14 10 29 C10.66 29.33 11.32 29.66 12 30 C7.69214025 31.35148541 4.58042408 32 0 32 C0 21.44 0 10.88 0 0 Z " fill="#494949" transform="translate(227,319)"/>
<path d="M0 0 C1.60294922 0.01353516 1.60294922 0.01353516 3.23828125 0.02734375 C4.04652344 0.03894531 4.85476562 0.05054688 5.6875 0.0625 C4.3675 0.3925 3.0475 0.7225 1.6875 1.0625 C1.3575 9.9725 1.0275 18.8825 0.6875 28.0625 C-1.6225 28.0625 -3.9325 28.0625 -6.3125 28.0625 C-6.6425 19.8125 -6.9725 11.5625 -7.3125 3.0625 C-8.6325 2.4025 -9.9525 1.7425 -11.3125 1.0625 C-7.47525828 0.15836327 -3.93747726 -0.04326898 0 0 Z " fill="#888888" transform="translate(190.3125,259.9375)"/>
<path d="M0 0 C3.1921126 0.79802815 5.98155093 1.74231289 9 3 C9.01417969 3.56847656 9.02835938 4.13695312 9.04296875 4.72265625 C9.52316664 12.49667079 12.55151699 16.67896689 18 22 C13.20584946 22.38353204 9.87988115 22.43994058 5.5 20.25 C3.06193835 18.05574452 2.22930057 17.21020798 2 14 C1.34 14 0.68 14 0 14 C0 9.38 0 4.76 0 0 Z " fill="#656565" transform="translate(158,286)"/>
<path d="M0 0 C1.98 0 3.96 0 6 0 C6 9.57 6 19.14 6 29 C4.02 29 2.04 29 0 29 C0 19.43 0 9.86 0 0 Z " fill="#AAAAAA" transform="translate(212,323)"/>
<path d="M0 0 C2.31 0 4.62 0 7 0 C7 10.23 7 20.46 7 31 C6.67 31 6.34 31 6 31 C6 21.1 6 11.2 6 1 C5.01 1.33 4.02 1.66 3 2 C2.98018066 2.83249268 2.96036133 3.66498535 2.93994141 4.52270508 C2.86179258 7.614765 2.77509794 10.70643383 2.68261719 13.7980957 C2.62555908 15.7929536 2.57835558 17.7880854 2.53125 19.78320312 C2.49257812 21.03681641 2.45390625 22.29042969 2.4140625 23.58203125 C2.3826416 24.73936768 2.3512207 25.8967041 2.31884766 27.08911133 C2 30 2 30 0 33 C-1.65 32.67 -3.3 32.34 -5 32 C-3.68 31.67 -2.36 31.34 -1 31 C-0.67 20.77 -0.34 10.54 0 0 Z " fill="#707070" transform="translate(196,91)"/>
<path d="M0 0 C0.66 0.33 1.32 0.66 2 1 C0.25 2.3125 0.25 2.3125 -1.5 3.625 C-2.23089844 4.17414063 -2.96179688 4.72328125 -3.71484375 5.2890625 C-5.1615804 6.3722602 -6.61169847 7.45096863 -8.06640625 8.5234375 C-14.90120694 13.57931746 -20.82863117 18.26694204 -25.640625 25.36328125 C-27 27 -27 27 -30 28 C-24.0230147 15.52269888 -12.20263623 6.15512163 0 0 Z M-31 28 C-30.34 28.66 -29.68 29.32 -29 30 C-29.33 30.66 -29.66 31.32 -30 32 C-30.66 32 -31.32 32 -32 32 C-32 32.66 -32 33.32 -32 34 C-32.66 33.67 -33.32 33.34 -34 33 C-33.01 31.35 -32.02 29.7 -31 28 Z " fill="#AFAFAF" transform="translate(112,96)"/>
<path d="M0 0 C0.99 0 1.98 0 3 0 C3 8.91 3 17.82 3 27 C2.01 27 1.02 27 0 27 C0 18.09 0 9.18 0 0 Z " fill="#C1C1C1" transform="translate(213,324)"/>
<path d="M0 0 C3.13013693 1.56506846 3.43092584 4.23926056 4.6875 7.4375 C7.8516941 15.1857189 12.16403133 21.50957702 17.4375 28 C19 30 19 30 19 32 C10.01688312 28.41472053 5.39986114 16.37115395 1.25 8.1640625 C0.05141437 5.13014263 -0.28878043 3.2126823 0 0 Z " fill="#A4A4A4" transform="translate(74,267)"/>
<path d="M0 0 C0.99 0.66 1.98 1.32 3 2 C1.84989552 9.82071048 -2.37271321 15.64128826 -8 21 C-8.99 21.33 -9.98 21.66 -11 22 C-11.33 21.01 -11.66 20.02 -12 19 C-11.54109375 18.67128906 -11.0821875 18.34257812 -10.609375 18.00390625 C-4.37439513 13.17048698 -1.75310018 7.59676743 0 0 Z " fill="#2E2E2E" transform="translate(274,293)"/>
<path d="M0 0 C0 2.31 0 4.62 0 7 C-2.64 7.33 -5.28 7.66 -8 8 C-8 6.02 -8 4.04 -8 2 C-5.09399739 0.74335022 -3.20395416 0 0 0 Z " fill="#3C3C3C" transform="translate(267,223)"/>
<path d="M0 0 C0 2.31 0 4.62 0 7 C-2.64 7.33 -5.28 7.66 -8 8 C-8 6.02 -8 4.04 -8 2 C-4.91190305 0.23537317 -3.76687864 0 0 0 Z " fill="#3C3C3C" transform="translate(267,211)"/>
<path d="M0 0 C0.33 0 0.66 0 1 0 C1 5.94 1 11.88 1 18 C-1.31 18.33 -3.62 18.66 -6 19 C-6 19.66 -6 20.32 -6 21 C-10.47058824 25 -10.47058824 25 -13 25 C-12.875 22.6875 -12.875 22.6875 -12 20 C-7.57208838 17.01373403 -5.57323918 17 0 17 C0 11.39 0 5.78 0 0 Z " fill="#282828" transform="translate(280,166)"/>
<path d="M0 0 C0 1.98 0 3.96 0 6 C-2.64 6.33 -5.28 6.66 -8 7 C-8 5.02 -8 3.04 -8 1 C-5.07175348 0.02391783 -3.04386724 -0.08226668 0 0 Z " fill="#3E3E3E" transform="translate(267,199)"/>
<path d="M0 0 C0 1.98 0 3.96 0 6 C-2.64 6.33 -5.28 6.66 -8 7 C-8 5.02 -8 3.04 -8 1 C-5.10765685 0.17361624 -3.11257569 0 0 0 Z " fill="#3E3E3E" transform="translate(267,236)"/>
<path d="M0 0 C2.5625 0.1875 2.5625 0.1875 4.5625 2.1875 C4.1875 4.3125 4.1875 4.3125 3.5625 6.1875 C-1.1875 7.3125 -1.1875 7.3125 -3.4375 6.1875 C-3.480221 4.52138095 -3.47813832 2.85367115 -3.4375 1.1875 C-2.4375 0.1875 -2.4375 0.1875 0 0 Z " fill="#2A2A2A" transform="translate(192.4375,179.8125)"/>
<path d="M0 0 C7.36072234 0.42465706 13.32137824 2.98348917 20 6 C20 6.66 20 7.32 20 8 C16.51329166 6.8905928 13.22515763 5.73662334 10 4 C9.67 4.66 9.34 5.32 9 6 C4.545 4.02 4.545 4.02 0 2 C0 1.34 0 0.68 0 0 Z " fill="#797979" transform="translate(241,93)"/>
<path d="M0 0 C0.99 0.33 1.98 0.66 3 1 C2.34 1 1.68 1 1 1 C1 5.62 1 10.24 1 15 C1.66 15 2.32 15 3 15 C4.03789581 16.64333504 5.03567924 18.31243867 6 20 C6.66 20.66 7.32 21.32 8 22 C8 22.66 8 23.32 8 24 C3.94149089 22.49684848 1.10317769 19.73039157 -1 16 C-1.44595237 13.13592449 -1.17242142 10.4888352 -0.8125 7.625 C-0.74224609 6.88894531 -0.67199219 6.15289062 -0.59960938 5.39453125 C-0.42421369 3.5938022 -0.21547947 1.79637339 0 0 Z " fill="#333333" transform="translate(157,285)"/>
<path d="M0 0 C6 2 6 2 8 5 C5.03 4.505 5.03 4.505 2 4 C1.67 10.93 1.34 17.86 1 25 C0.67 25 0.34 25 0 25 C0 16.75 0 8.5 0 0 Z " fill="#646464" transform="translate(233,97)"/>
<path d="M0 0 C6.93302093 -0.22731216 13.2168636 0.57997892 20 2 C20 2.33 20 2.66 20 3 C17.22858283 3.08089542 14.45952181 3.14044062 11.6875 3.1875 C10.90181641 3.21263672 10.11613281 3.23777344 9.30664062 3.26367188 C8.54931641 3.27333984 7.79199219 3.28300781 7.01171875 3.29296875 C6.31522217 3.3086792 5.61872559 3.32438965 4.90112305 3.34057617 C2.45510217 2.90238443 1.57297914 1.86562642 0 0 Z " fill="#393939" transform="translate(229,90)"/>
<path d="M0 0 C0.66 0.33 1.32 0.66 2 1 C-4.06574858 5.62212575 -9.56703846 9.1148286 -17 11 C-14.21503399 7.75258576 -10.60463249 5.83910905 -6.9375 3.75 C-6.30005859 3.37359375 -5.66261719 2.9971875 -5.00585938 2.609375 C-3.3733501 1.67356357 -1.68928489 0.82894277 0 0 Z " fill="#A5A5A5" transform="translate(145,77)"/>
<path d="M0 0 C0.66 0.33 1.32 0.66 2 1 C1.79503906 1.59167969 1.59007813 2.18335938 1.37890625 2.79296875 C0.0002429 6.83660816 -1.31750847 10.76855249 -2 15 C-2.99 15.33 -3.98 15.66 -5 16 C-4.54762239 14.08191891 -4.08785537 12.16557967 -3.625 10.25 C-3.24214844 8.64898437 -3.24214844 8.64898437 -2.8515625 7.015625 C-2.12466459 4.44147278 -1.2973776 2.32399814 0 0 Z " fill="#AAAAAA" transform="translate(76,134)"/>
<path d="M0 0 C0.66 0 1.32 0 2 0 C0.59155282 3.21524305 -1.10344786 5.32183868 -3.625 7.75 C-4.57246094 8.67039062 -4.57246094 8.67039062 -5.5390625 9.609375 C-6.02117187 10.06828125 -6.50328125 10.5271875 -7 11 C-7.66 10.67 -8.32 10.34 -9 10 C-7.8758824 8.70756532 -6.75067408 7.41607925 -5.625 6.125 C-4.99851562 5.40570313 -4.37203125 4.68640625 -3.7265625 3.9453125 C-2.52573166 2.5923402 -1.2791655 1.2791655 0 0 Z " fill="#2E2E2E" transform="translate(103,113)"/>
<path d="M0 0 C0.66 0 1.32 0 2 0 C1.67 0.99 1.34 1.98 1 3 C0.85284801 4.62567079 0.75278133 6.25586857 0.68359375 7.88671875 C0.64169922 8.82451172 0.59980469 9.76230469 0.55664062 10.72851562 C0.51732422 11.70498047 0.47800781 12.68144531 0.4375 13.6875 C0.39431641 14.67556641 0.35113281 15.66363281 0.30664062 16.68164062 C0.20058346 19.12095546 0.09852286 21.56037113 0 24 C-0.33 24 -0.66 24 -1 24 C-1.02887236 20.18751574 -1.04675492 16.3750593 -1.0625 12.5625 C-1.07087891 11.47388672 -1.07925781 10.38527344 -1.08789062 9.26367188 C-1.09111328 8.22919922 -1.09433594 7.19472656 -1.09765625 6.12890625 C-1.10289307 5.17056885 -1.10812988 4.21223145 -1.11352539 3.22485352 C-1 1 -1 1 0 0 Z " fill="#818181" transform="translate(161,98)"/>
<path d="M0 0 C0.66 0.33 1.32 0.66 2 1 C-0.40689803 3.72675159 -2.92471023 5.11966596 -6.1875 6.6875 C-7.08855469 7.12449219 -7.98960938 7.56148438 -8.91796875 8.01171875 C-9.60503906 8.33785156 -10.29210937 8.66398437 -11 9 C-11 8.01 -11 7.02 -11 6 C-9.21385682 4.96953278 -7.42089982 3.95086764 -5.625 2.9375 C-4.62726563 2.36902344 -3.62953125 1.80054687 -2.6015625 1.21484375 C-1.74304688 0.81394531 -0.88453125 0.41304688 0 0 Z " fill="#A8A8A8" transform="translate(126,88)"/>
<path d="M0 0 C0.66 0 1.32 0 2 0 C2 4.95 2 9.9 2 15 C1.67 15 1.34 15 1 15 C1 11.04 1 7.08 1 3 C0.34 3 -0.32 3 -1 3 C-0.67 2.01 -0.34 1.02 0 0 Z " fill="#747474" transform="translate(152,106)"/>
<path d="M0 0 C3.73487777 0.4979837 5.81237635 0.87491756 9 3 C9 3.66 9 4.32 9 5 C5.22454612 3.90931332 2.52956528 3.0916909 0 0 Z " fill="#9E9E9E" transform="translate(121,318)"/>
<path d="M0 0 C1.485 0.99 1.485 0.99 3 2 C2.125 6.75 2.125 6.75 1 9 C0.34 8.67 -0.32 8.34 -1 8 C-0.67 5.36 -0.34 2.72 0 0 Z " fill="#292929" transform="translate(274,293)"/>
</svg>
